<svg id="Capa_1" data-name="Capa 1" xmlns="http://www.w3.org/2000/svg" viewBox="0 0 1640 950.23"><path d="M0,667.23C3.78,657,11.18,652.61,22.05,653.17c7.81.4,15.67.27,23.49,0,3.51-.13,4.78,1,5.65,4.42q14.7,57.79,29.74,115.51c.37,1.43.8,2.85,1.62,5.74,3-11.7,5.76-22,8.43-32.36,7.64-29.64,15.35-59.26,22.81-88.94.88-3.48,2.26-4.41,5.7-4.37,15,.19,29.92.08,45.16.08V817.81H134V689.16l-1.44-.24L100.11,818H65.36Q48.93,753.51,32.48,688.92l-1.12.15V818.23H0Z"/><path d="M1640,762.23c-1,5.21-1.74,10.48-3.06,15.61-10.87,42.16-64.56,57.54-96.55,27.72-10.22-9.53-13.85-22.08-16-35.23a98.22,98.22,0,0,1,2.69-44.49c6.63-22.26,24.46-36.53,47.65-37.43,7.59-.3,15.45-.11,22.82,1.51,24,5.28,35.3,22.57,40.39,45.09.84,3.71,1.39,7.48,2.07,11.22Zm-31.76-8.12c-1.29-7-1.86-14.07-3.94-20.63-3.58-11.29-12.44-17.55-22.9-17.44-11.7.12-19.83,6-23.48,18-4.68,15.32-3.64,30.7,2.16,45.44a23.46,23.46,0,0,0,9.6,10.81c13.6,7.81,28.74,1.75,34-13.68C1606.19,769.45,1606.78,761.7,1608.24,754.11Z"/><path d="M1276,950.23c-2.89-.68-5.82-1.25-8.67-2.06-11.08-3.16-17.67-11.86-17.92-23.78h14.79c4.43,11,14.77,15.59,25.83,10.93,2.59-1.09,5-4.22,6.06-7,1.43-3.65-1.29-6.57-4.51-7.86-6-2.41-12.19-4.28-18.34-6.27-3-1-6.13-1.54-9.11-2.57-9.1-3.17-13.54-9-13.92-18.59-.38-9.4,2.78-17.33,11.69-21.37a41,41,0,0,1,33.93-.52c8.82,3.76,12.55,11.3,13.22,21-6.92.57-13.12,1.76-17.48-5.93-3.49-6.16-17.2-7.06-22.75-2.49-4.86,4-4.19,10.77,1.91,13.22,6.6,2.65,13.62,4.24,20.46,6.28.64.19,1.29.31,1.93.49,13.61,3.73,19.31,10.6,18.76,22.6-.58,12.51-8.31,20.69-21.59,22.88-1.45.23-2.86.69-4.29,1Z"/><path d="M1064,950.23c-2.88-.71-5.79-1.3-8.63-2.15-10.88-3.23-17.57-12.28-17.34-24,4.26,0,8.56-.17,12.83.12,1,.08,2.35,1.53,2.82,2.65,3.94,9.33,20.32,13.37,28.16,6.86,4.38-3.64,4.37-9.86-.85-12.49-6-3-12.67-4.8-19.09-7-3-1-6.14-1.51-9.12-2.53-9.5-3.24-13.67-9-14.07-19-.41-10.36,3.9-18.06,12.75-21.66a42.63,42.63,0,0,1,31.24-.66c9.67,3.47,13.92,11.22,14.73,21.14-8.4,2.42-12,1.25-17.18-5.4-4.48-5.81-17.8-7.12-23.31-2.28-4.8,4.21-3.91,10.58,2.45,13.12s13.31,4.13,20,6.13c.8.23,1.61.4,2.41.62,13.59,3.73,18.86,10.3,18.33,22.82-.52,12.11-8,20.14-20.8,22.47-1.78.33-3.55.76-5.32,1.13Z"/><path d="M333,950.23c-.27-.19-.51-.49-.8-.56-19.61-4.68-27.58-12.88-29.55-32.81a76.86,76.86,0,0,1,1.76-24.69c3-12.74,11.75-20.53,24.77-23.08,8.47-1.66,16.92-1.58,25.1,1.42,10.88,4,18,14.37,17.34,25-7.2.73-13.56,1.32-18.31-6.79-5.93-10.12-25.57-8.18-31.39,2.93-6,11.43-5.85,23.46.06,35,3.78,7.39,10.67,9.53,18.56,9.09,7.59-.43,12.71-4.11,15.56-11.26a5.85,5.85,0,0,1,4-3,102.67,102.67,0,0,1,11.37-.14c1.07,10.68-6.45,21.72-17.59,25.86-3.53,1.32-7.27,2.07-10.92,3.08Z"/><path d="M903.27,281.1c-27.29,18.17-54.75,35.28-80.9,54.19-31.57,22.83-62.09,47.12-92.88,71-3.54,2.75-5.48,3-9.13.15C685,378.64,649.48,351.06,614,323.4c-1.44-1.11-2.82-2.28-4.62-3.75,5.68-5.16,11-10.11,16.49-15A1290.39,1290.39,0,0,1,751.56,205.1c2.43-1.69,4.3-2.72,7.51-1q70,37.42,140.21,74.53C900.72,279.39,902.05,280.34,903.27,281.1Z"/><path d="M1093.37,181.32c-20.25,9.79-40.08,18.82-59.4,28.85-31.61,16.42-62.9,33.45-94.27,50.32-2.54,1.37-4.39,1.85-7.24.33q-71.3-38.19-142.74-76.11l-4.08-2.19c1.77-1.21,3.21-2.26,4.7-3.21A1177.23,1177.23,0,0,1,929.45,103c2.1-1,5.31-1.35,7.32-.46C989,125.66,1040.15,151,1089.86,179.14,1090.85,179.7,1091.79,180.34,1093.37,181.32Z"/><path d="M570.85,557.7,479,456.77A1562.79,1562.79,0,0,1,585.72,342.15l108.45,92.31Z"/><path d="M512.47,244.58c16-14,31.22-27.87,47.1-41.05,23.45-19.46,47.38-38.36,71-57.63,2.82-2.3,4.95-2.71,8.36-1,30.87,15.26,61.85,30.3,93,45.48-24.33,18.49-48.76,36.21-72.23,55.13S613.45,284.7,590,304.74Z"/><path d="M910.13,90.91c-2.15,1-3.9,1.94-5.69,2.77A1182.16,1182.16,0,0,0,766,169c-2.15,1.37-3.87,2.29-6.75.93-32-15.18-64.12-30.14-96.2-45.17-.58-.28-1.11-.66-1.91-1.14,1-.85,1.78-1.67,2.69-2.33,39.37-28.32,80.06-54.54,123-77.17a8.59,8.59,0,0,1,6.35-.66q57.23,22.83,114.3,46C908.21,89.8,908.9,90.26,910.13,90.91Z"/><path d="M976.39,739.42c16.65,5.57,19.35,18.23,20.39,31.65.71,9.29.56,18.65,1.32,27.94.51,6.29,1.94,12.5,3,19.14-9.93,0-21.15.09-32.38-.15-1,0-2.65-2-2.85-3.29q-1.65-10.07-2.65-20.23c-.84-8.59-1.08-17.25-2.16-25.81-1-8.28-6.16-13.62-14.52-13.92-14.41-.52-28.85-.14-43.73-.14v63.18H869v-5.14q0-69.74,0-139.45c0-12.85,6.48-19.54,19.26-19.5,23.32.06,46.64.17,70,.62a56.94,56.94,0,0,1,14.66,2.73c15.14,4.46,24.48,14.71,27,30.19a77.88,77.88,0,0,1,.45,22.81C998.53,723.61,991.13,733.69,976.39,739.42ZM903,725.21c15.27,0,29.93.33,44.57-.11,10.29-.31,16.73-5.31,19.08-13.32,3-10.23.57-21.09-7.19-25.56a36.79,36.79,0,0,0-16-4.27c-12.14-.62-24.32-.21-36.49-.18a37.29,37.29,0,0,0-4,.43Z"/><path d="M555.76,77.05c1.8-1.26,3.1-2.21,4.44-3.11Q614.36,37.66,668.6,1.48c1.86-1.23,5.09-1.9,7.1-1.19,30.39,10.85,60.69,22,91,33,.61.23,1.16.58,2.27,1.14-1.48,1-2.57,1.79-3.76,2.44a1023.33,1023.33,0,0,0-118,75.84c-3.11,2.3-5.41,2.5-8.94.92-25.8-11.59-51.72-22.91-77.6-34.32C559.19,78.68,557.73,78,555.76,77.05Z"/><path d="M1127.45,653.3c6.25,0,11.92-.27,17.56.07,8.31.49,14.48,7.55,14.64,16.68.17,10,0,20,0,30v6.3a15.26,15.26,0,0,0,2.2-1.88c15.22-21.37,47.82-20.53,64.26-4.75a64,64,0,0,1,18.32,33.15,99.73,99.73,0,0,1-1.3,49.4c-6.43,22.8-21.51,35.3-44.93,37.78a83.66,83.66,0,0,1-43.8-7.17c-16.47-7.39-24.34-20.42-26.35-37.69a100,100,0,0,1-.8-11.46q-.1-53.22,0-106.45C1127.25,656.14,1127.36,655,1127.45,653.3Zm87.8,100.8c-1.74-7.36-2.64-15.07-5.41-22-4-10.15-12.09-15.67-23.44-15.34-11.55.35-19.5,5.84-23.44,16.93-4.9,13.8-4.51,27.9-.3,41.74,3.38,11.11,11.8,17.15,22.93,17.6s20.45-5.08,24.43-16.17C1212.56,769.73,1213.48,762.05,1215.25,754.1Z"/><path d="M702.92,763.19H620.43c-1.67,11.37,4.23,23.25,13.43,27.48,10.22,4.69,26,1.8,31.63-6.33,1.8-2.59,5.94-4.51,9.23-4.89,6.58-.78,13.3-.28,20-.31h5.44a29.22,29.22,0,0,1-.67,4A52.44,52.44,0,0,1,652.06,820a91.75,91.75,0,0,1-24.78-1.48c-18-3.94-30-15.65-36.09-32.74a92.74,92.74,0,0,1-.17-63.2c7.43-21.08,25.11-33.5,47.43-34.41,11.46-.46,22.68.5,33.17,5.5,20.13,9.58,27.74,27.24,30.23,47.92C702.67,748.47,702.56,755.46,702.92,763.19Zm-35.08-21.83c.69-15.84-9-25.91-24.28-25.58-14.4.31-24.58,11.35-23.27,25.58Z"/><path d="M1296.07,723.24c2.28-14.4,10-24.14,22.57-30,13.17-6.17,27.23-5.89,41.19-4.37a73.34,73.34,0,0,1,19.74,4.9c13.28,5.44,20.34,15.75,20.3,30.31-.06,17.81.59,35.71-.87,53.41-1.92,23.37-17.84,39-41.36,41.47-11.32,1.18-23.15,2-34.23,0-27.24-4.85-40.38-36-25.59-59.53,3.08-4.92,8.54-8.79,13.67-11.88,11-6.6,23.73-7.1,36-9.3a82.36,82.36,0,0,0,14.82-4.09c4.16-1.6,6.62-4.91,6-9.82-.54-4.69-3.61-6.88-7.73-8.06-7.31-2.09-14.74-3.06-22.15-.9-2.79.81-6.22,2-7.68,4.15-2.55,3.79-5.71,3.81-9.41,3.78C1313.06,723.19,1304.75,723.24,1296.07,723.24Zm73.28,31.67c-10.95,2.84-21.22,5.38-31.41,8.22a29.07,29.07,0,0,0-8.56,3.88c-5.26,3.61-6.11,9.19-5.53,15.08.53,5.38,3.14,9.34,8.34,11.38,14.9,5.84,32.78-3.44,35.75-19.06C1369.16,768,1368.93,761.32,1369.35,754.91Z"/><path d="M176.53,723.24c1.58-12.55,7.75-21.78,18.1-27.54a59.72,59.72,0,0,1,19.63-6.65c14.09-2.17,28.25-1.49,41.92,3.13,16.25,5.48,23.88,16.23,23.91,33.32,0,15,.14,30-.08,45-.42,28.31-16.72,46.24-44.95,48.75-10.36.92-21.15,1.62-31.26-.24-27.28-5-40.44-35.83-25.69-59.47,3.15-5,8.8-9,14.06-12.14,10.8-6.52,23.43-6.92,35.5-9.15a84.58,84.58,0,0,0,15.27-4.27c3.93-1.54,6.39-4.85,5.85-9.48s-3.43-7.58-7.69-8.06a137.88,137.88,0,0,0-22.15-.95c-2.93.14-6.34,2.37-8.41,4.67a8.43,8.43,0,0,1-7.16,3.18C194.58,723.14,185.78,723.24,176.53,723.24ZM249.68,755c-10.57,2.67-20.09,4.92-29.52,7.52a39.12,39.12,0,0,0-10.07,4.21c-5.46,3.37-6.52,9-6,14.89.44,5.29,2.82,9.51,8,11.69,14.14,5.94,32.39-2.68,35.82-17.59C249.45,769,249.15,761.91,249.68,755Z"/><path d="M503.57,818H470.49c-.11-1.61-.29-3.05-.29-4.5,0-23.32-.34-46.65.16-70A119.82,119.82,0,0,1,474.12,718c2.18-8.91,8.11-15.42,16.22-20,20-11.22,40.46-12.89,62-4.68,17.37,6.64,26.54,19.43,27.51,37.43,1.07,19.94.79,40,1,59.93.1,9,0,17.93,0,27.21-7,0-13.69.62-20.19-.16-7.91-1-12.58-7.42-12.61-16.1-.07-21.33,0-42.65,0-64,0-8.34-2.2-15.49-10.19-19.66-8.3-4.32-16.6-4.37-24.8.19-6.46,3.59-9.25,9.42-9.31,16.56-.13,16.16-.12,32.32-.15,48.48C503.56,794.68,503.57,806.14,503.57,818Z"/><path d="M1517.94,818.17c-6,0-11.12.07-16.28,0-10.23-.15-16.49-6.32-16.54-16.63-.11-21.32,0-42.65-.06-64-.06-17.75-16.58-28-32.79-20.51-8.52,3.93-11.57,10.86-11.54,19.79.06,25.16,0,50.31,0,75.47v5.62H1408c-.25-.45-.55-.73-.55-1,.06-26.81-.48-53.65.38-80.44.89-27.34,11.94-40.43,43.46-47.19,13.61-2.92,26.7-.43,39.55,4.69,16.2,6.46,24.05,18.74,26,35.39a147.51,147.51,0,0,1,1,16.94c.11,22,0,44,0,66Z"/><path d="M1009.11,691.23H1042c0,2,0,3.76,0,5.53q0,37.25,0,74.49c0,8.5,2.11,15.86,10.35,20.07,8.58,4.38,17,3.95,25.2-1a16.58,16.58,0,0,0,8.59-14.37c.32-11.32.31-22.65.36-34,0-11-.06-22,0-33,.1-12.23,5.92-17.92,18.21-18,4.63,0,9.25,0,14.14,0,.14,2,.32,3.45.32,4.9,0,23.17.12,46.33-.06,69.49a128.34,128.34,0,0,1-1.56,18.88c-3.06,19.43-16.34,28.82-34,33.58-20.4,5.52-39.6,2.31-57.57-8.59-10.11-6.14-14-16.15-15.89-27.1a86.93,86.93,0,0,1-1.19-14.41c-.12-24.16-.07-48.33-.07-72.49C1008.91,694.12,1009,693,1009.11,691.23Z"/><path d="M709.65,691.27H813.27c0,8.69.14,17.13-.13,25.56,0,1.52-1.59,3.18-2.78,4.46q-29.7,32.09-59.5,64.07c-1.23,1.33-2.42,2.7-4.39,4.9h69.07v27.66H705.92c0-8.14-.16-16.23.14-24.3.05-1.5,1.8-3.06,3-4.39Q739,756,768.92,722.79c1.4-1.55,2.74-3.15,4.9-5.65H755.44c-9.32,0-18.65,0-28,0-11.68,0-17.71-6.15-17.81-17.92C709.63,696.74,709.65,694.27,709.65,691.27Z"/><path d="M768.7,444.17l-23.38-18.33c3.78-3.12,7.26-6.07,10.8-8.92A1675,1675,0,0,1,923.53,298.31c3.65-2.26,6.23-2.33,9.76.05,7,4.73,14.34,9,22.39,14C890.24,352.53,828.72,397,768.7,444.17Z"/><path d="M416.09,793.41v25.11c-4.11,0-8.19.11-12.27,0-7.81-.28-15.66-.34-23.43-1.17-8.47-.91-13.53-5.88-15.3-14.15a41.69,41.69,0,0,1-1-8.4q-.09-68.71,0-137.43c0-1,.12-2,.19-3,7,0,14-.68,20.85.19s11.58,8.07,11.73,15.49c.14,7,0,13.92,0,21.41h18.52c3.08,10.64-1.22,23.32-18.26,23.12-.08,1.56-.23,3.15-.23,4.73q0,32,0,64c0,7.8,2.27,10.07,10.08,10.19C409.8,793.45,412.61,793.41,416.09,793.41Z"/><path d="M1154.67,217.74c-19.1,7.07-37.47,13.43-55.5,20.65-37.13,14.87-72.73,33-107.41,52.85-3.72,2.14-6.35,2-9.81-.32-7.13-4.86-14.55-9.29-22.47-14.28,16-8.91,31.09-18,46.79-26C1042,232.47,1078,214.87,1113.9,197c2.68-1.35,4.68-1.37,7.27.26C1132.14,204.1,1143.26,210.77,1154.67,217.74Z"/><path d="M356.61,691.39v33.07c-2,.12-3.89.27-5.8.34-3.32.12-6.66.07-10,.32-13.23,1-21.46,8.68-21.82,22-.57,21.3-.32,42.61-.42,63.92,0,2.13,0,4.27,0,6.78H285.84c-.13-.26-.52-.69-.52-1.12.16-23.63-.57-47.31.79-70.87,1.75-30.25,20.33-49.21,50.27-53.53,5.41-.78,10.92-.9,16.39-1.25A24.94,24.94,0,0,1,356.61,691.39Z"/><path d="M714.46,451.71c7.27,6.16,14.23,12.08,21.15,18l-138.05,118c-3.5-3.91-7.31-8.17-11.31-12.62A1641.06,1641.06,0,0,1,714.46,451.71Z"/><path d="M1286.65,818h-33V691.47c7.06,0,14.07-.71,20.86.2,7.51,1,12.11,8.2,12.14,17.2.06,19.3,0,38.6,0,57.91V818Z"/><path d="M425.31,691.25c6.56,0,12.89-.39,19.14.1,7.63.6,13.46,7.73,13.5,16,.1,17.32,0,34.64,0,52v58.58H425.31Z"/><path d="M1211.06,947.92c-1.19.14-1.69.24-2.18.24-4.49,0-10,1.49-13.17-.6s-3.57-7.73-5-11.9c-.77-2.2-1.51-3.69-4.37-3.61-7.65.21-15.31.07-23,.07h-4c-1.36,4.23-2.86,8.4-4,12.67-.66,2.5-1.74,3.59-4.45,3.44-4.14-.21-8.3-.05-13.17-.05.67-2.1,1.16-3.77,1.73-5.41q11.18-31.74,22.37-63.47c2.93-8.33,3.88-9,12.52-9,8.9,0,8.9,0,11.94,8.4q11.58,32.12,23.16,64.24C1210,944.46,1210.46,946,1211.06,947.92Zm-25.92-29.06c-3.51-10.79-6.92-21.3-10.78-33.18-3.83,11.77-7.25,22.25-10.81,33.18Z"/><path d="M517.07,928.33h14.35c3.61,8.37,11.5,11.65,19.08,7.82,1.54-.77,3.31-2.78,3.37-4.28s-1.62-3.56-3.09-4.43c-2.08-1.22-4.67-1.6-7-2.31-4.94-1.47-10-2.64-14.79-4.45-6.23-2.34-10.35-6.78-10.62-13.75s2.29-13,8.55-16.39c10.91-5.84,22.15-5.59,32.85.63,5.36,3.12,7.53,8.54,8,14.9-6.47.28-12.7,1.81-17.38-4.68-2.33-3.22-10.63-3.5-14.09-1.45-3.27,1.93-3.39,5.78.16,7.38,3.91,1.75,8.18,2.68,12.3,3.94,3.49,1.07,7.05,1.94,10.47,3.19,6.08,2.23,10.25,6.25,10.66,13.09.41,7.1-1.49,13.69-7.95,17.19-11.83,6.43-24.31,6.67-36.39.64C519.07,942.17,516.93,936,517.07,928.33Z"/><path d="M950.35,903.22c.68-7.8,5.83-14.34,14.19-15.37a77.78,77.78,0,0,1,22.63.86,13.21,13.21,0,0,1,11.32,12.95,269.34,269.34,0,0,1-.57,29.39c-.54,7.11-4.87,12.32-11.46,15.18a38.18,38.18,0,0,1-25.87,1.82c-8.18-2.27-12-7.85-12.37-16.69S950.8,917,958.8,914.07c5.23-1.94,11-2.49,16.42-3.85,3.73-.93,9-1,8.51-6.4-.48-5-5.55-4.84-9.2-4.59-3.08.21-6.07,1.88-9.09,2.93a10.16,10.16,0,0,1-2.63,1C958.67,903.28,954.52,903.22,950.35,903.22Zm33.46,15.19c-4.73,1.23-9.21,2.32-13.64,3.57-5.9,1.66-8.26,5-7.18,9.93.9,4.17,5.23,6.19,10.84,5.06C981.75,935.37,984.85,929.78,983.81,918.41Z"/><path d="M835.61,917.46c.19-2.38.22-5.06.65-7.68,2.51-15.28,12.47-23.66,27.51-23.26,14.79.4,24.72,9.58,26.16,24.83a57.43,57.43,0,0,1-.5,16.36c-3,14.78-13.36,22.32-28.46,21.47-14.19-.8-23.14-9.58-24.86-24.46C835.84,922.4,835.78,920.07,835.61,917.46Zm40,1a81.61,81.61,0,0,0-1.33-9c-1.63-6.11-5.88-9.62-11.13-9.6-5.93,0-10.42,3.09-11.36,9.72a63.65,63.65,0,0,0,.43,18.17c.85,5.6,4.84,8.4,10,8.75,5,.33,9.19-2.18,11.09-7.49C874.62,925.45,875,921.6,875.64,918.43Z"/><path d="M384.88,918.83c.18-3.06.16-5.08.44-7.05,2.4-16.87,12.08-25.64,27.81-25.27,15.35.37,25.11,10,26.53,26.79a53.11,53.11,0,0,1-1,15.35c-3,13.63-13,20.92-27.24,20.56-13.93-.35-22.93-8.11-25.42-22C385.42,924.08,385.15,920.93,384.88,918.83Zm40.29-.66c-.55-3.48-.75-6.33-1.48-9-1.62-5.92-6.12-9.46-11.41-9.31-5.7.16-10.32,3.35-11.06,9.5a67.34,67.34,0,0,0,.56,18.64c.92,5.64,5,8.27,10.17,8.52,5.44.27,8.94-2.73,10.74-7.32C424.11,925.53,424.46,921.47,425.17,918.17Z"/><path d="M453.35,947.75c0-13.56-.75-27.06.2-40.44,1-13.66,13.35-22.15,27.89-20.6,16.87,1.8,23.5,9.09,23.59,26.12.07,11.61,0,23.22,0,35.35-2.6,0-4.72,0-6.83,0-5.69-.16-8.28-2.6-8.34-8.24-.11-9.82.05-19.65-.08-29.47-.09-7-3.76-10.93-10.07-11.25-6.47-.32-10.82,3.56-10.89,10.17-.13,12.65,0,25.29,0,38.37Z"/><path d="M667.52,888.35H683v30.06c0,2.17,0,4.33,0,6.5.06,7.9,3.92,12.29,10.65,12.14S704,932.65,704,925.12c0-8.5,0-17,0-25.49,0-9.84,1.91-11.72,11.66-11.5,1,0,1.94.13,3.2.22a27.45,27.45,0,0,1,.44,3.47c0,10.66.17,21.33,0,32-.34,18.94-13.3,28.88-32.06,24.79-13.73-3-18.91-8.18-19.62-21.85C667,914.15,667.52,901.5,667.52,888.35Z"/><path d="M784.27,906.2c-4.41,0-8.41.18-12.38-.1a6.33,6.33,0,0,1-3.93-2.16c-3.27-4-7.42-4.78-12.14-3.9-4.44.82-6.88,3.8-8.05,7.94-2,6.89-2.13,13.88.34,20.63a12.13,12.13,0,0,0,18.63,5.49c6.56-4.77,9.42-5.38,18.79-3.62-2,3.48-3.34,7.09-5.71,9.85-7.38,8.6-17.26,10.23-27.79,8.35-10-1.78-16.11-8.25-19-17.78a45,45,0,0,1,.09-26.59c3.62-11.78,13.64-18.38,26.42-17.74C773,887.24,781.89,894.12,784.27,906.2Z"/><path d="M816.58,888.28h7.73c1.05,7.06-.45,9-8.57,11.33,0,10.85-.14,21.83.18,32.79.05,1.37,2.38,3,4,3.87,1.16.64,2.88.27,4.66.36v11.13c-5.63,0-11.27.46-16.8-.13-5.34-.57-7.52-4.18-7.56-11.15-.08-16.5,0-33,0-49.5V870.53c5.1,0,10.92-2.35,13.72,3.09C816,877.64,815.69,882.85,816.58,888.28Z"/><path d="M585,870.4c5.18.18,11-2.06,13.54,3.27,2,4.07,1.62,9.24,2.35,14.29l8,.54c.94,7.13-.36,8.82-8.7,11.15,0,10.68-.11,21.49.06,32.29.06,3.85.86,4.13,8.68,4.77v11.17c-5.4,0-10.71.36-16-.1s-7.85-3.65-7.89-9.23C584.9,916.06,585,893.57,585,870.4Z"/><path d="M654.73,888.48v15.38c-1.57.07-2.86.16-4.15.19-9.82.25-13.43,3.86-13.51,13.79s0,19.88,0,30.08H620.78c.79-13.77.34-27.66,2.71-41.06C625.79,893.88,639,887.08,654.73,888.48Z"/><path d="M937,888.59v15.48c-1.91,0-3.67-.05-5.42,0-8.13.27-11.85,3.64-12.22,12s-.12,16.66-.14,25c0,2.15,0,4.3,0,6.79H903.81c0-3.32,0-6.73,0-10.15,0-7.16-.14-14.33.11-21.49C904.57,897.43,917.66,886.39,937,888.59Z"/><path d="M1286.77,679.69h-33V653.41c7.25.35,14.61,0,21.67,1.28,5.68,1,9.56,5.56,10.57,11.46C1286.71,670.48,1286.53,675,1286.77,679.69Z"/><path d="M474.86,650c-9.77,10-18.47,19.06-27.45,27.84-1.25,1.22-3.92,1.22-6,1.36-3.12.21-6.27,0-10.49,0,4.87-8.92,9.12-17.29,14-25.25,1.25-2,4.59-3.64,7.08-3.82C459.14,649.7,466.27,650,474.86,650Z"/><path d="M1237.48,947.9h-11.23c-1.77-11.41-.39-12.86,11.23-11.62Z"/><path d="M1326.24,947.8c-1.46-11.52-.26-12.76,11.35-11.54V947.8Z"/><path d="M1126,936.37v11.44h-11.22C1112.18,937.35,1114.44,934.89,1126,936.37Z"/></svg>