<?xml version="1.0" encoding="utf-8"?>
<!-- Generator: Adobe Illustrator 25.4.1, SVG Export Plug-In . SVG Version: 6.00 Build 0)  -->
<svg version="1.1" id="Capa_1" xmlns="http://www.w3.org/2000/svg" xmlns:xlink="http://www.w3.org/1999/xlink" x="0px" y="0px"
	 viewBox="0 0 162.3 141.4" style="enable-background:new 0 0 162.3 141.4;" xml:space="preserve">
<style type="text/css">
	.st0{fill:#FFFFFF;}
</style>
<g>
	<path class="st0" d="M83.7,6.1c0.4,0.1,0.8,0.3,1.3,0.3c10,0.5,19.3,3.3,28.1,8.2c5,2.8,9.5,6.2,13.5,10.1
		c4.7,4.6,8.6,9.7,11.7,15.5c3.2,5.9,5.4,12.1,6.7,18.7c0.9,5.1,1.3,10.1,1,15.3c-0.3,6.1-1.4,11.9-3.4,17.7
		c-2.6,7.8-6.7,14.8-12,21c-6.1,7.1-13.3,12.7-21.8,16.6c-6,2.8-12.2,4.7-18.8,5.5c-0.6,0.1-1.2,0.2-1.7,0.2c-0.2,0-0.5,0-0.8,0
		c0-0.5,0-0.9,0-1.3c0-15.1,0-30.2,0-45.3c0-1.3,0.3-1.7,1.6-1.7c3.8,0.1,7.5,0,11.3,0c0.5,0,0.9,0,1.5,0c0-4.9,0-9.7,0-14.6
		c-0.5,0-0.9-0.1-1.4-0.1c-3.9,0-7.8,0-11.7,0c-1.1,0-1.4-0.4-1.4-1.4c0-3.1,0.2-6.1,1.1-9.1c1.4-4.8,4.8-7.2,9.4-8
		c2.6-0.5,5.3-0.5,8-0.8c0-0.1,0.1-0.4,0.1-0.7c0-4.8,0-9.6,0-14.3c0-0.8-0.2-1.2-1.1-1.2c-5.6-0.1-11.1,0.1-16.6,1.5
		c-7.8,2.1-13.1,6.8-15.7,14.5c-1.7,5-2.7,10.1-2.9,15.4c0,1-0.2,2-0.2,3c0,0.9-0.3,1.1-1.2,1.1c-3.4,0-6.8,0-10.2,0
		c-0.5,0-0.9,0-1.5,0c0,4.9,0,9.7,0,14.6c0.4,0,0.9,0.1,1.3,0.1c3.4,0,6.9,0,10.3,0c0.9,0,1.3,0.2,1.3,1.2c0,15.1,0,30.1,0,45.2
		c0,1-0.2,1.2-1.3,1c-10.6-2.2-20-6.7-28.3-13.5c-8.7-7.2-15.1-16.1-19.3-26.7c-2.1-5.5-3.5-11.2-4-17c-1-11.6,0.7-22.7,5.7-33.3
		c3-6.4,6.9-12.1,11.7-17.3c7.7-8.2,17-14,27.8-17.4c5-1.6,10.1-2.6,15.3-2.8c0.3,0,0.7-0.2,1-0.3C80,6.1,81.9,6.1,83.7,6.1z"/>
</g>
</svg>
