<?xml version="1.0" encoding="utf-8"?>
<!-- Generator: Adobe Illustrator 18.0.0, SVG Export Plug-In . SVG Version: 6.00 Build 0)  -->
<!DOCTYPE svg PUBLIC "-//W3C//DTD SVG 1.1//EN" "http://www.w3.org/Graphics/SVG/1.1/DTD/svg11.dtd">
<svg version="1.1" id="Capa_1" xmlns="http://www.w3.org/2000/svg" xmlns:xlink="http://www.w3.org/1999/xlink" x="0px" y="0px"
	 viewBox="61.7 -109.5 162.3 141.4" enable-background="new 61.7 -109.5 162.3 141.4" xml:space="preserve">
<g>
	<path fill="#191919" d="M92.8-32.6c3.5-3.3,7.1-6.5,10.8-9.6c7.6-6.4,15.4-12.4,23.6-18.1c0.5-0.4,0.9-0.5,1.6-0.2
		c11.4,5.8,22.7,11.7,33.8,17.9c0.4,0.2,0.8,0.3,1.1,0.8c-6.7,4.1-13.4,8.4-19.8,13c-7.7,5.4-15.1,11.1-22.3,17.2
		c-0.6,0.5-1,0.6-1.7,0C111-18.4,102.3-25.2,93.5-32C93.3-32.2,93.1-32.3,92.8-32.6z"/>
	<path fill="#191919" d="M135.1-65.5c3.6-2.4,7.1-4.5,10.7-6.6c7.8-4.6,15.8-8.8,24-12.6c0.6-0.3,1.1-0.3,1.7-0.1
		c12.6,5.6,25,11.8,37,18.6c0.2,0.1,0.5,0.1,0.5,0.5c-4.2,2-8.4,4-12.5,6c-8.3,4.1-16.4,8.4-24.4,13c-0.5,0.3-1,0.5-1.6,0.1
		c-11.4-6.7-23.1-12.7-34.9-18.6C135.5-65.2,135.3-65.3,135.1-65.5z"/>
	<path fill="#191919" d="M83.9,25c-0.3-0.3-0.5-0.5-0.6-0.7C76.2,16.5,69.2,8.8,62.1,1c-0.5-0.6-0.4-0.9,0-1.4
		c7.8-9.1,15.9-17.9,24.4-26.2c0.5-0.5,0.8-0.5,1.4,0c8.3,7.1,16.6,14.2,24.9,21.2c0.6,0.5,0.6,0.8,0,1.3
		c-9.9,8.9-19.3,18.3-28.3,28.2C84.4,24.3,84.2,24.6,83.9,25z"/>
	<path fill="#1A1A1A" d="M122.4-63.5c-1.7,1.2-3.4,2.4-5.1,3.6c-9.8,7-19.1,14.7-28,22.9c-0.8,0.8-1.2,0.8-2.1,0.1
		c-5.5-4.4-11.1-8.7-16.8-13c-0.8-0.6-0.8-0.9,0-1.6c8.9-8,18.1-15.7,27.6-23c0.5-0.4,0.9-0.6,1.6-0.3c7.4,3.7,14.9,7.3,22.3,10.9
		C122.1-63.7,122.2-63.6,122.4-63.5z"/>
	<path fill="#1A1A1A" d="M165.2-87.5c-2.3,1.1-4.5,2.1-6.7,3.2c-9.6,4.7-18.9,9.8-27.9,15.5c-0.8,0.5-1.3,0.5-2.2,0.1
		c-7.3-3.6-14.7-7-22.2-10.4c-0.4-0.2-0.7-0.3-1.2-0.6c2-1.4,3.8-2.7,5.7-4c7.9-5.5,16.1-10.6,24.7-15.1c0.5-0.3,0.9-0.4,1.6-0.2
		c9.3,3.6,18.5,7.3,27.7,11.2C164.8-87.7,164.9-87.6,165.2-87.5z"/>
	<path fill="#1A1A1A" d="M79.9-90.8c7.3-4.9,14.4-9.6,21.5-14.4c1.9-1.3,3.8-2.6,5.7-3.9c0.4-0.3,0.9-0.5,1.4-0.3
		c7.4,2.7,14.9,5.4,22.3,8.2c0.1,0,0.2,0.1,0.4,0.3c-2.2,1.3-4.5,2.5-6.6,3.8c-7.9,4.6-15.5,9.7-22.8,15.1c-0.5,0.4-0.9,0.6-1.6,0.3
		c-6.5-2.9-13.1-5.8-19.6-8.7C80.4-90.6,80.2-90.7,79.9-90.8z"/>
	<path fill="#1A1A1A" d="M125.4-7.1c7.1-5.8,14.3-11.3,21.7-16.6c7-4.9,14.1-9.7,21.3-14.2c0.7-0.4,1.2-0.5,1.9,0
		c1.8,1.2,3.7,2.3,5.7,3.5c-2.2,1.4-4.2,2.6-6.2,3.9c-13.1,8.4-25.6,17.5-37.9,27.1c-0.7,0.6-1.1,0.6-1.8,0
		C128.7-4.6,127.1-5.8,125.4-7.1z"/>
	<path fill="#1A1A1A" d="M224-56.9c-8,2.4-15.4,5.4-22.6,8.8c-5.8,2.7-11.5,5.7-17,8.9c-0.7,0.4-1.1,0.4-1.8,0
		c-1.8-1.2-3.7-2.4-5.6-3.5c0.2-0.4,0.5-0.5,0.8-0.6c11.7-6.8,23.8-13,36.1-18.6c0.7-0.3,1.2-0.4,1.8,0.1
		C218.4-60.3,221.1-58.7,224-56.9z"/>
	<path fill="#1A1A1A" d="M90.1,31.9c-0.3-0.3-0.5-0.6-0.8-0.8c-0.7-0.8-1.9-1.5-1.9-2.3c0.1-0.8,1.2-1.5,1.9-2.3
		c8.8-9.4,18.1-18.2,27.9-26.7c0.7-0.6,1-0.6,1.6,0c1.2,1.1,2.5,2.2,3.7,3.2c0.6,0.4,0.7,0.7,0,1.2c-9,7.3-17.9,14.9-26.6,22.5
		c-1.8,1.6-3.5,3.1-5.3,4.7C90.6,31.5,90.4,31.7,90.1,31.9z"/>
</g>
</svg>
