<?xml version="1.0" encoding="utf-8"?>
<!-- Generator: Adobe Illustrator 25.4.1, SVG Export Plug-In . SVG Version: 6.00 Build 0)  -->
<svg version="1.1" id="Capa_1" xmlns="http://www.w3.org/2000/svg" xmlns:xlink="http://www.w3.org/1999/xlink" x="0px" y="0px"
	 viewBox="0 0 162.3 141.4" style="enable-background:new 0 0 162.3 141.4;" xml:space="preserve">
<style type="text/css">
	.st0{fill:#FFFFFF;}
</style>
<g>
	<path class="st0" d="M81.2,3.7c10,0.2,19.9,0.4,29.9,0.8c7.3,0.3,14.4,2.2,20.6,6.3c8.5,5.7,13.2,13.7,15.2,23.7
		c0.9,4.6,1.1,9.3,1.2,14c0.1,15.2,0.1,30.4,0,45.6c0,5.3-0.3,10.6-1.7,15.8c-3.8,14.4-13,23.1-27.4,26.5
		c-5.6,1.3-11.4,1.5-17.2,1.5c-15.1,0.1-30.2,0-45.3-0.1c-5.2,0-10.4-0.5-15.5-2c-13.3-4-21.5-12.9-24.9-26.3
		c-1.2-5-1.5-10.1-1.6-15.1c-0.1-15.2-0.1-30.5,0-45.7c0-5.7,0.3-11.4,1.9-16.9C20.3,16.7,30.1,8.2,44.9,5.2c5.3-1,10.6-1.1,16-1.2
		c6.8-0.1,13.5,0,20.3,0C81.2,3.9,81.2,3.8,81.2,3.7z M81.1,126.1c0-0.1,0-0.1,0-0.2c3.7,0,7.5,0.1,11.2,0
		c7.1-0.2,14.2-0.4,21.2-0.9c4.5-0.3,8.7-1.9,12.3-4.6c5-3.7,7.8-8.9,9-14.9c1-4.9,1.1-10,1.1-15c0.1-12.9,0.1-25.7,0-38.6
		c0-5.2-0.1-10.4-1.1-15.5c-2.1-10.2-8.1-16.7-18.3-19.1c-4.2-1-8.4-1.2-12.7-1.2c-11.6-0.1-23.1-0.2-34.7-0.2
		c-6.6,0-13.2,0.3-19.7,0.8c-4.4,0.3-8.6,1.6-12.3,4.1c-5.9,4-9.1,9.7-10,16.6c-0.7,5.4-0.9,10.9-1,16.3c-0.1,11.4-0.1,22.9,0,34.3
		c0.1,5.8,0,11.6,1.2,17.4c1.7,8.7,6.4,15,15,18.1c3.2,1.2,6.5,1.8,9.8,1.9C61.8,125.7,71.5,125.8,81.1,126.1z"/>
	<path class="st0" d="M81.1,105.3c-19,0-34.4-15.4-34.3-34.4c0-19,15.4-34.3,34.3-34.3c19.1,0,34.4,15.4,34.4,34.5
		C115.5,90,100.1,105.3,81.1,105.3z M81.2,48.5c-12.4,0-22.5,10-22.5,22.2c0,12.5,10,22.5,22.4,22.6c12.4,0,22.5-10,22.5-22.6
		C103.6,58.5,93.5,48.5,81.2,48.5z"/>
	<path class="st0" d="M116.8,43.2c-4.4,0-8-3.6-7.9-8.1c0-4.4,3.7-7.9,8-7.9c4.4,0,8,3.6,8,8.1C124.9,39.6,121.2,43.2,116.8,43.2z"
		/>
</g>
</svg>
