<?xml version="1.0" encoding="utf-8"?>
<!-- Generator: Adobe Illustrator 18.0.0, SVG Export Plug-In . SVG Version: 6.00 Build 0)  -->
<!DOCTYPE svg PUBLIC "-//W3C//DTD SVG 1.1//EN" "http://www.w3.org/Graphics/SVG/1.1/DTD/svg11.dtd">
<svg version="1.1" id="Capa_1" xmlns="http://www.w3.org/2000/svg" xmlns:xlink="http://www.w3.org/1999/xlink" x="0px" y="0px"
	 viewBox="2 84 393.6 228.3" enable-background="new 2 84 393.6 228.3" xml:space="preserve">
<g>
	<path fill="#1A1A1A" d="M2,243.9c0.3,0,0.3-0.3,0.4-0.5c0.9-1.5,2.2-2.4,4-2.4c2.2,0,4.5,0,6.7,0c0.8,0,1,0.3,1.2,1
		c2.4,9.5,4.9,19,7.4,28.6c0,0.1,0.1,0.2,0.2,0.5c1.6-6.1,3.1-12.1,4.7-18c1-3.7,1.9-7.4,2.8-11.1c0.2-0.6,0.3-0.9,1-0.9
		c3.5,0,7,0,10.4,0c0.7,0,0.8,0.2,0.8,0.9c0,12.6,0,25.3,0,37.9c0,0.7-0.2,0.9-0.9,0.9c-1.9,0-3.8-0.1-5.6,0c-1,0.1-1.1-0.4-1.1-1.2
		c0-9.4,0-18.7,0-28.1c0-0.4,0-0.9,0-1.3c-0.1,0-0.2,0-0.2,0c-0.4,1.7-0.9,3.4-1.3,5c-2.1,8.2-4.2,16.4-6.2,24.7
		c-0.2,0.8-0.5,0.9-1.2,0.9c-2.2,0-4.4-0.1-6.6,0c-0.7,0-1-0.3-1.1-0.9c-2.4-9.5-4.8-19.1-7.2-28.6c-0.1-0.4-0.2-0.8-0.6-1.2
		c0,0.4,0,0.8,0,1.2c0,9.4,0,18.8,0,28.2c0,1-0.1,1.4-1.3,1.3c-2.1-0.1-4.2,0-6.4,0C2,268.3,2,256.1,2,243.9z"/>
	<path fill="#1A1A1A" d="M307.3,312.3c-0.3-0.4-0.8-0.3-1.3-0.5c-2.4-0.8-3.7-2.5-4.2-4.9c-0.1-0.7,0-1.1,0.8-1c0.4,0.1,0.8,0,1.2,0
		c1.1-0.1,1.9,0,2.1,1.3c0.1,0.6,0.8,1,1.4,1.3c1.4,0.6,2.8,0.6,4.2,0.2c0.8-0.2,1.4-0.7,1.5-1.7c0.1-1-0.4-1.5-1.1-1.9
		c-1.4-0.8-2.9-1-4.4-1.5c-0.3-0.1-0.7-0.2-1-0.3c-3.3-0.9-4.5-2.3-4.5-5.4c0-2.8,1.7-4.6,4.8-5.3c1.8-0.4,3.6-0.4,5.3,0.1
		c2.2,0.6,3.9,2.7,4.1,4.8c0,0.6-0.1,0.8-0.8,0.8c-1.4,0-2.6-0.1-3.4-1.6c-0.9-1.5-4.1-1.7-5.4-0.6c-1.2,1-1,2.5,0.5,3.2
		c1.7,0.7,3.5,1,5.3,1.5c1.9,0.6,3.7,1.3,4.4,3.5c1.2,3.9-1.3,7.3-5.5,7.6c-1.1,0.3-2.3-0.1-3.4,0.2
		C307.6,312.3,307.4,312.3,307.3,312.3z"/>
	<path fill="#1A1A1A" d="M256.6,312.3c-0.4-0.4-0.9-0.3-1.4-0.5c-2.4-0.8-3.9-2.7-4.2-5.1c-0.1-0.6,0.1-0.7,0.6-0.7
		c0.4,0,0.9,0,1.3,0c1-0.1,2.1-0.2,2.3,1.3c0.1,0.6,0.7,1,1.4,1.3c1.4,0.6,2.8,0.6,4.2,0.2c0.9-0.2,1.4-0.9,1.5-1.8
		c0.1-0.9-0.5-1.4-1.1-1.8c-1.4-0.8-3-1.1-4.5-1.5c-0.7-0.2-1.4-0.4-2.1-0.6c-2.2-0.7-3.2-2.3-3.4-4.6c-0.2-2.2,0.9-4.3,2.9-5.1
		c2.7-1.2,5.4-1.2,8.1-0.1c2,0.8,2.9,2.5,3.2,4.6c0.1,0.3,0.1,0.6-0.4,0.7c-1.5,0.3-2.8-0.1-3.7-1.5c-1.1-1.5-4.3-1.9-5.6-0.7
		c-1.1,1-0.9,2.4,0.5,3.1c1.6,0.8,3.4,1,5.1,1.5c1,0.3,2.1,0.6,2.9,1.3c2.7,2.1,2.3,7-0.8,8.8c-1,0.6-2.1,1-3.3,0.9
		c-1,0.3-2-0.1-2.9,0.2C257.1,312.3,256.9,312.3,256.6,312.3z"/>
	<path fill="#1A1A1A" d="M81.2,312.3c-0.1-0.1-0.1-0.2-0.2-0.2c-3.3-0.5-6-3.1-6.4-7.9c-0.2-2-0.1-4.1,0.5-6.1c1-3.2,3.2-5,6.5-5.5
		c1.6-0.2,3.3-0.2,4.9,0.2c2.6,0.7,4.6,2.9,4.9,5.5c0.1,0.7,0,1-0.8,1c-1.6,0.1-2.8-0.2-3.7-1.8c-1.4-2.4-6.1-2-7.5,0.6
		c-1.5,2.7-1.4,5.6,0,8.4c1,1.9,2.7,2.3,4.7,2.2c1.8-0.1,2.9-1.1,3.4-2.7c0.2-0.6,0.5-0.7,1-0.7c0.5,0,1,0,1.6,0
		c1.6,0,1.6,0,1.2,1.5c-0.8,3-3,4.9-6.1,5.2c-0.2,0-0.4,0-0.5,0.2c-0.2,0-0.3,0-0.5,0c-0.8-0.2-1.6-0.2-2.4,0
		C81.5,312.3,81.4,312.3,81.2,312.3z"/>
	<path fill="#403B39" d="M395.6,266.7c-0.4-1.1-0.4-2.2,0-3.4C395.6,264.4,395.6,265.5,395.6,266.7z"/>
	<path fill="#544F4D" d="M307.8,312.3c1.1-0.5,2.3-0.1,3.4-0.2c0,0.1,0,0.1,0,0.2C310,312.3,308.9,312.3,307.8,312.3z"/>
	<path fill="#4C4746" d="M257.4,312.3c0.9-0.5,1.9-0.1,2.9-0.2c0,0.1,0,0.1,0,0.2C259.3,312.3,258.3,312.3,257.4,312.3z"/>
	<path fill="#4F4A48" d="M81.7,312.3c0.8-0.4,1.6-0.4,2.4,0C83.3,312.3,82.5,312.3,81.7,312.3z"/>
	<path fill="#D3D1D3" d="M133.1,312.1c0,0.1,0,0.1,0,0.2c-0.6,0-1.1,0-1.7,0c0-0.1,0-0.1,0-0.2C131.9,311.6,132.5,311.6,133.1,312.1
		z"/>
	<path fill="#D2D0D2" d="M235.3,312.1c0,0.1,0,0.1,0,0.2c-0.5,0-1,0-1.4,0c0-0.1,0-0.1,0-0.2C234.3,311.6,234.8,311.6,235.3,312.1z"
		/>
	<path fill="#D9D7D8" d="M167.8,312.3c0-0.1,0-0.1,0-0.2c0.4-0.4,0.8-0.4,1.2,0c0,0.1,0,0.1,0,0.2
		C168.6,312.3,168.2,312.3,167.8,312.3z"/>
	<path fill="#D0CED0" d="M184.7,312.1c0,0.1,0,0.1,0,0.2c-0.4,0-0.8,0-1.2,0c0-0.1,0-0.1,0-0.2C183.8,311.7,184.2,311.7,184.7,312.1
		z"/>
	<path fill="#191919" d="M148.2,160.9c3.5-3.3,7.1-6.5,10.8-9.6c7.6-6.4,15.4-12.4,23.6-18.1c0.5-0.4,0.9-0.5,1.6-0.2
		c11.4,5.8,22.7,11.7,33.8,17.9c0.4,0.2,0.8,0.3,1.1,0.8c-6.7,4.1-13.4,8.4-19.8,13c-7.7,5.4-15.1,11.1-22.3,17.2
		c-0.6,0.5-1,0.6-1.7,0c-8.7-6.9-17.5-13.7-26.3-20.5C148.7,161.3,148.5,161.1,148.2,160.9z"/>
	<path fill="#191919" d="M190.5,128c3.6-2.4,7.1-4.5,10.7-6.6c7.8-4.6,15.8-8.8,24-12.6c0.6-0.3,1.1-0.3,1.7-0.1
		c12.6,5.6,25,11.8,37,18.6c0.2,0.1,0.5,0.1,0.5,0.5c-4.2,2-8.4,4-12.5,6c-8.3,4.1-16.4,8.4-24.4,13c-0.5,0.3-1,0.5-1.6,0.1
		c-11.4-6.7-23.1-12.7-34.9-18.6C190.9,128.2,190.7,128.2,190.5,128z"/>
	<path fill="#191919" d="M139.3,218.5c-0.3-0.3-0.5-0.5-0.6-0.7c-7.1-7.8-14.1-15.6-21.2-23.3c-0.5-0.6-0.4-0.9,0-1.4
		c7.8-9.1,15.9-17.9,24.4-26.2c0.5-0.5,0.8-0.5,1.4,0c8.3,7.1,16.6,14.2,24.9,21.2c0.6,0.5,0.6,0.8,0,1.3
		c-9.9,8.9-19.3,18.3-28.3,28.2C139.7,217.8,139.5,218.1,139.3,218.5z"/>
	<path fill="#1A1A1A" d="M177.8,130c-1.7,1.2-3.4,2.4-5.1,3.6c-9.8,7-19.1,14.7-28,22.9c-0.8,0.8-1.2,0.8-2.1,0.1
		c-5.5-4.4-11.1-8.7-16.8-13c-0.8-0.6-0.8-0.9,0-1.6c8.9-8,18.1-15.7,27.6-23c0.5-0.4,0.9-0.6,1.6-0.3c7.4,3.7,14.9,7.3,22.3,10.9
		C177.5,129.8,177.6,129.9,177.8,130z"/>
	<path fill="#1A1A1A" d="M220.5,106c-2.3,1.1-4.5,2.1-6.7,3.2c-9.6,4.7-18.9,9.8-27.9,15.5c-0.8,0.5-1.3,0.5-2.2,0.1
		c-7.3-3.6-14.7-7-22.2-10.4c-0.4-0.2-0.7-0.3-1.2-0.6c2-1.4,3.8-2.7,5.7-4c7.9-5.5,16.1-10.6,24.7-15.1c0.5-0.3,0.9-0.4,1.6-0.2
		c9.3,3.6,18.5,7.3,27.7,11.2C220.1,105.8,220.2,105.9,220.5,106z"/>
	<path fill="#1A1A1A" d="M135.3,102.7c7.3-4.9,14.4-9.6,21.5-14.4c1.9-1.3,3.8-2.6,5.7-3.9c0.4-0.3,0.9-0.5,1.4-0.3
		c7.4,2.7,14.9,5.4,22.3,8.2c0.1,0,0.2,0.1,0.4,0.3c-2.2,1.3-4.5,2.5-6.6,3.8c-7.9,4.6-15.5,9.7-22.8,15.1c-0.5,0.4-0.9,0.6-1.6,0.3
		c-6.5-2.9-13.1-5.8-19.6-8.7C135.7,102.9,135.6,102.8,135.3,102.7z"/>
	<path fill="#1A1A1A" d="M122.9,270c0,3.2,0,6.3,0,9.5c0,0.8-0.1,1.1-1,1.1c-2.1-0.1-4.2,0-6.2,0c-0.7,0-0.9-0.2-0.9-0.9
		c0-6.1,0-12.2,0-18.2c0-1.4,0.3-2.7,0.6-4c1-4.5,4.4-6.4,8.4-7.6c3.9-1.1,7.7-0.7,11.4,0.9c3.7,1.6,5.4,4.5,5.9,8.3
		c0.4,3.3,0.2,6.7,0.2,10.1c0,3.4,0,6.9,0,10.3c0,0.9-0.3,1.1-1.1,1c-0.9-0.1-1.8,0-2.6,0c-2.9,0-4.2-1.4-4.2-4.3c0-5,0-10.1,0-15.1
		c0-2.9-1.2-4.4-3.7-5.2c-3-0.9-7,0.6-6.9,5C123,264,122.9,267,122.9,270z"/>
	<path fill="#1A1A1A" d="M347.8,270c0,3.2,0,6.4,0,9.6c0,0.8-0.2,1-1,1c-2.1-0.1-4.2,0-6.2,0c-0.6,0-0.9-0.1-0.9-0.8
		c0-6,0-12.1,0-18.1c0-1.4,0.2-2.7,0.5-4c1-4.6,4.4-6.5,8.4-7.7c4-1.2,7.9-0.7,11.7,1c3.5,1.6,5.1,4.3,5.7,8
		c0.3,1.8,0.2,3.6,0.2,5.4c0,5.1,0,10.2,0,15.2c0,0.8-0.2,1.1-1,1.1c-1-0.1-2,0-3,0c-2.4,0-3.9-1.5-3.9-3.9c0-5.2-0.1-10.3,0-15.5
		c0.1-5-4.6-6.1-7.5-5.1c-2,0.7-3.1,2.2-3.1,4.4C347.8,263.7,347.8,266.8,347.8,270C347.8,270,347.8,270,347.8,270z"/>
	<path fill="#1A1A1A" d="M270.7,261.3c-0.1,2.6,0.1,5.8-0.1,9c-0.1,1.4-0.4,2.8-0.8,4.1c-1.2,3.7-4.3,5.2-7.7,6.2
		c-4.8,1.4-9.4,0.6-13.7-2c-2.5-1.5-3.4-3.9-4-6.5c-0.3-1.4-0.3-2.8-0.3-4.2c0-5.6,0-11.2,0-16.8c0-0.9,0.2-1.2,1.1-1.1
		c2,0.1,3.9,0.1,5.9,0c0.9,0,1.1,0.2,1.1,1.1c0,6,0,12.1,0,18.1c0,2.9,0.9,4.4,3.2,5.3c3.8,1.4,7.3-0.9,7.4-5c0-5,0-9.9,0-14.9
		c0-3.2,1.5-4.6,4.6-4.6c1.1,0,2.4-0.4,3.1,0.2c0.7,0.6,0.2,2,0.2,3.1C270.7,255.8,270.7,258.3,270.7,261.3z"/>
	<path fill="#1A1A1A" d="M187.7,256.3c-3.8,0-7.4,0-11,0c-2.9,0-4.4-1.5-4.4-4.3c0-2,0-2,2-2c7.3,0,14.6,0,21.8,0
		c1,0,1.3,0.3,1.3,1.3c-0.1,1.8,0.5,3.8-0.2,5.3c-0.7,1.5-2.3,2.6-3.5,3.9c-4,4.3-7.9,8.6-11.9,12.8c-0.1,0.1-0.2,0.3-0.5,0.6
		c0.6,0,1.1,0,1.5,0c4.7,0,9.4,0,14.2,0c0.9,0,1.1,0.2,1,1.1c-0.1,1.6,0,3.3,0,4.9c0,0.6-0.1,0.8-0.7,0.8c-8.4,0-16.7,0-25.1,0
		c-0.6,0-0.7-0.2-0.7-0.8c0-1.6,0-3.1,0-4.7c0-0.7,0.4-1.1,0.8-1.5c4.8-5.3,9.5-10.6,14.3-15.8C186.8,257.3,187.1,256.9,187.7,256.3
		z"/>
	<path fill="#1A1A1A" d="M180.8,186.4c7.1-5.8,14.3-11.3,21.7-16.6c7-4.9,14.1-9.7,21.3-14.2c0.7-0.4,1.2-0.5,1.9,0
		c1.8,1.2,3.7,2.3,5.7,3.5c-2.2,1.4-4.2,2.6-6.2,3.9c-13.1,8.4-25.6,17.5-37.9,27.1c-0.7,0.6-1.1,0.6-1.8,0
		C184.1,188.9,182.5,187.7,180.8,186.4z"/>
	<path fill="#1A1A1A" d="M89.4,258.9c0-5.5,0-11,0-16.5c0-1.2,0.4-1.4,1.4-1.3c0.9,0.1,1.8,0,2.6,0c2.2,0.1,3.9,1.8,3.9,4
		c0,1.4,0,2.9,0,4.3c0,0.6,0.2,0.8,0.8,0.8c1.1,0,2.2,0,3.2,0c0.4,0,0.6,0,0.7,0.5c0.4,2.8-1.2,4.8-4,5c-0.6,0-0.8,0.2-0.8,0.8
		c0,5.4,0,10.7,0,16.1c0,1.4,0.7,2,2.1,2c0.8,0,2-0.3,2.4,0.2c0.6,0.6,0.2,1.7,0.2,2.6c0,0.8,0,1.7,0,2.5c0,0.5-0.2,0.7-0.7,0.7
		c-2.6,0.2-5.3,0.1-7.9-0.2c-2.7-0.3-4-2.1-4.1-5C89.3,269.9,89.4,264.4,89.4,258.9C89.4,258.9,89.4,258.9,89.4,258.9z"/>
	<path fill="#1A1A1A" d="M279.4,136.6c-8,2.4-15.4,5.4-22.6,8.8c-5.8,2.7-11.5,5.7-17,8.9c-0.7,0.4-1.1,0.4-1.8,0
		c-1.8-1.2-3.7-2.4-5.6-3.5c0.2-0.4,0.5-0.5,0.8-0.6c11.7-6.8,23.8-13,36.1-18.6c0.7-0.3,1.2-0.4,1.8,0.1
		C273.8,133.2,276.5,134.8,279.4,136.6z"/>
	<path fill="#1A1A1A" d="M70.4,271.3c0.1-3-0.3-6.5,0.4-10c1.3-6.2,5.2-10,11.5-11c1.5-0.2,3-0.3,4.5-0.4c0.6,0,0.8,0.2,0.8,0.8
		c0,2.2,0,4.5,0,6.7c0,0.7-0.2,0.8-0.8,0.8c-0.9,0-1.8,0-2.8,0c-3.4,0.1-5.5,2.1-5.5,5.5c-0.1,5.2-0.1,10.4,0,15.6
		c0,1-0.2,1.3-1.2,1.2c-2-0.1-4-0.1-6,0c-0.8,0-0.9-0.2-0.9-0.9C70.4,277.1,70.4,274.5,70.4,271.3z"/>
	<path fill="#1A1A1A" d="M145.5,225.4c-0.3-0.3-0.5-0.6-0.8-0.8c-0.7-0.8-1.9-1.5-1.9-2.3c0.1-0.8,1.2-1.5,1.9-2.3
		c8.8-9.4,18.1-18.2,27.9-26.7c0.7-0.6,1-0.6,1.6,0c1.2,1.1,2.5,2.2,3.7,3.2c0.6,0.4,0.7,0.7,0,1.2c-9,7.3-17.9,14.9-26.6,22.5
		c-1.8,1.6-3.5,3.1-5.3,4.7C146,225,145.8,225.2,145.5,225.4z"/>
	<path fill="#1A1A1A" d="M310.8,266.8c0,4.2,0,8.5,0,12.7c0,0.9-0.3,1.1-1.1,1.1c-2-0.1-4.1,0-6.1,0c-0.6,0-0.9-0.1-0.9-0.8
		c0-9.6,0-19.3,0-28.9c0-0.6,0.1-0.9,0.8-0.9c1.2,0,2.3,0,3.5,0c2.3,0.1,3.8,1.7,3.8,4.2C310.9,258.4,310.8,262.6,310.8,266.8z"/>
	<path fill="#1A1A1A" d="M103.9,265.2c0-4.7,0-9.4,0-14.2c0-0.8,0.2-1.1,1-1.1c1,0.1,2.1,0,3.1,0c2.4,0.1,3.9,1.6,3.9,4
		c0,8.6,0,17.1,0,25.7c0,0.8-0.2,0.9-0.9,0.9c-2,0-4.1-0.1-6.1,0c-0.8,0-1-0.2-1-1C103.9,274.8,103.9,270,103.9,265.2z"/>
	<path fill="#1A1A1A" d="M133.1,312.1c-0.6,0-1.1,0-1.7,0c-2.9-0.2-4.6-1.4-5.2-3.5c-0.4-1.5-0.3-1.6,1.2-1.6c0.4,0,0.8,0,1.2,0
		c0.7-0.1,1.1,0.1,1.4,0.9c0.5,1.4,3.7,1.8,4.7,0.6c0.5-0.6,0.4-1.1-0.3-1.5c-0.6-0.4-1.3-0.6-2-0.7c-1.2-0.2-2.4-0.6-3.5-1
		c-1.5-0.6-2.5-1.6-2.5-3.3c-0.1-1.7,0.6-3.2,2.1-4c2.6-1.4,5.3-1.3,7.9,0.1c1.1,0.6,1.7,1.8,1.9,3c0.1,0.3,0.2,0.7-0.3,0.7
		c-1.3-0.1-2.7,0.4-3.7-1c-0.6-0.8-2.5-1-3.4-0.5c-0.8,0.4-0.9,1.2-0.1,1.7c0.9,0.5,1.9,0.7,2.9,0.9c0.9,0.2,1.7,0.4,2.5,0.8
		c1.5,0.6,2.5,1.5,2.6,3.2c0.1,1.9-0.6,3.4-2.3,4.4C135.4,311.8,134.3,312,133.1,312.1z"/>
	<path fill="#1A1A1A" d="M169,312c-0.4,0-0.8,0-1.2,0c-4-0.5-5.7-2.2-5.7-6.1c0-2.6,0-5.1,0-7.7c0-0.8,0.2-1,1-1
		c2.8,0,2.8,0,2.8,2.8c0,2.1,0,4.2,0,6.2c0,1.7,1,2.7,2.5,2.7c1.6,0,2.5-1,2.5-2.7c0-2.3,0-4.6,0-6.8c0-1.8,1.8-2.9,3.5-2.2
		c0.3,0.1,0.3,0.3,0.3,0.6c0,2.9,0.1,5.8-0.1,8.7C174.4,310.3,172.8,311.7,169,312z"/>
	<path fill="#1A1A1A" d="M123.2,306.5c0,1.5,0,3,0,4.6c0,0.6-0.1,0.7-0.7,0.7c-2.5,0.1-3-0.4-3-2.9c0-2.2,0.1-4.3,0-6.5
		c-0.1-1.9-1.9-2.9-3.6-2.1c-0.9,0.4-1.3,1.2-1.3,2.2c0,2.8,0,5.5,0,8.3c0,0.7-0.1,1-0.9,1c-2.9,0-2.9,0-2.9-2.9c0-2,0.1-3.9,0-5.9
		c-0.2-4.9,3.7-6.3,7-6c3.9,0.3,5.4,2.2,5.5,6.1C123.3,304.2,123.2,305.4,123.2,306.5C123.2,306.5,123.2,306.5,123.2,306.5z"/>
	<path fill="#1A1A1A" d="M184.7,312.1c-0.4,0-0.8,0-1.2,0c-3.5-0.3-5.7-2.7-5.9-6.6c-0.1-1.2,0-2.4,0.2-3.6c0.7-3.1,3-4.9,6.2-5
		c3.4,0,5.7,1.6,6.5,4.8c-1.1,0-2.2,0-3.2,0c-0.4,0-0.6-0.1-0.8-0.4c-0.7-1.2-1.9-1.2-3.1-1c-1.1,0.2-1.6,1.1-1.8,2.1
		c-0.3,1.5-0.4,3.1,0.2,4.6c0.7,1.9,3.2,2.6,4.6,1.1c1.2-1.3,2.6-0.8,3.9-0.9c0.6,0,0.3,0.5,0.2,0.8
		C189.3,310.6,187.3,311.8,184.7,312.1z"/>
	<path fill="#1A1A1A" d="M194,301.4c0-2.5,0-5,0-7.5c0-0.7,0.2-0.9,0.9-0.9c2.5,0,3,0.4,3,3c0,0.8-0.1,1.5,1.1,1.4
		c1.1-0.1,1.4,0.4,1,1.4c-0.2,0.5-0.5,1-1.1,1c-1.1,0.1-1,0.7-1,1.5c0,2.1,0,4.2,0,6.2c0,1,0.3,1.5,1.3,1.3c0.8-0.1,0.9,0.3,0.9,0.9
		c0,2,0,2-1.9,2c-3.8-0.1-4.1-0.4-4.1-4.1C194,305.6,194,303.5,194,301.4z"/>
	<path fill="#1A1A1A" d="M142.3,301.5c0-2.5,0-5,0-7.5c0-0.7,0.1-0.9,0.8-0.9c2.4,0,2.9,0.4,2.9,2.9c0,0.7-0.3,1.6,1,1.4
		c0.4-0.1,1-0.3,1.2,0.2c0.2,0.5,0,1-0.3,1.5c-0.2,0.4-0.5,0.7-0.9,0.7c-1.1,0.1-1.1,0.8-1.1,1.6c0,2,0,4.1,0,6.1
		c0,0.9,0.3,1.5,1.3,1.3c0.7-0.1,1,0.2,0.9,0.9c0,0.4,0,0.7,0,1.1c0.1,0.7-0.1,0.9-0.8,0.9c-0.8-0.1-1.7,0-2.5,0
		c-1.9,0-2.6-0.7-2.6-2.6C142.3,306.6,142.3,304,142.3,301.5C142.3,301.5,142.3,301.5,142.3,301.5z"/>
	<path fill="#1A1A1A" d="M151.1,307.4c0-1.4-0.1-3,0.2-4.6c0.5-3.5,4.1-6.1,7.5-5.5c0.4,0.1,0.5,0.2,0.4,0.5c0,0.3,0,0.6,0,1
		c0,0.7,0.2,1.6-0.1,2.1c-0.4,0.7-1.3,0.2-2,0.3c-1.2,0.3-2,0.9-2.2,2.2c-0.3,2.4-0.1,4.8-0.1,7.2c0,0.9-0.2,1.2-1.2,1.2
		c-2.7-0.1-2.7,0-2.7-2.8C151.1,308.6,151.1,308.1,151.1,307.4z"/>
	<path fill="#1A1A1A" d="M218.9,307.5c0-1.4-0.1-2.7,0-4.1c0.3-3.9,3.6-6.5,7.5-6.1c0.4,0,0.6,0.2,0.6,0.6c0,0.4,0,0.7,0,1.1
		c0,0.7,0.2,1.5-0.1,2c-0.3,0.6-1.2,0.2-1.9,0.3c-1.4,0.2-2.2,1-2.2,2.4c-0.1,2.4-0.1,4.8-0.1,7.2c0,0.8-0.1,1.1-1,1
		c-0.9-0.1-2.2,0.4-2.8-0.2c-0.5-0.5-0.1-1.8-0.1-2.7c0-0.5,0-1,0-1.4C218.9,307.5,218.9,307.5,218.9,307.5z"/>
	<path fill="#1B1A1A" d="M306.8,247.4c-1,0-2.1,0-3.1,0c-0.6,0-0.9-0.1-0.9-0.8c0.1-1.6,0-3.2,0-4.8c0-0.6,0.2-0.8,0.8-0.8
		c1.1,0,2.2,0,3.2,0c2.4,0.1,4,1.7,4.1,4.1c0.1,2.3,0.1,2.3-2.3,2.3C308,247.4,307.4,247.4,306.8,247.4z"/>
	<path fill="#1B1A1A" d="M116.1,240.1c-2.4,2.4-4.6,4.6-6.7,6.9c-0.4,0.4-0.8,0.3-1.2,0.3c-0.9,0-1.8,0-2.8,0c1.1-2.1,2.1-4,3.2-5.9
		c0.5-0.8,1.3-1.2,2.3-1.2C112.5,240.1,114.2,240.1,116.1,240.1z"/>
	<path fill="#232120" d="M272.4,310c0,1.8,0,1.7-1.6,1.8c-0.9,0-1.6,0.1-1.5-1.2c0.1-1.6,0.3-1.7,1.9-1.9
		C272.6,308.6,272.4,309.4,272.4,310z"/>
	<path fill="#22211F" d="M297.3,311.8c-0.6,0.1-1.4,0.2-1.3-1.1c0.1-1.7,0.3-1.8,2-2c1.7-0.1,1,1.1,1.1,1.8
		C299.2,311.8,299.1,311.8,297.3,311.8z"/>
	<path fill="#1D1C1C" d="M321.9,311.8c-1.1-0.1-2,0.3-1.9-1.1c0.2-1.7,0.3-1.8,1.9-1.9c1.7-0.1,0.9,1.1,1.1,1.8
		C323.4,311.9,322.6,311.9,321.9,311.8z"/>
	<path fill="#1A1A1A" d="M395.6,262.3c-0.4-0.1-0.2-0.5-0.3-0.7c-1.2-6.9-5-12.1-13.3-12.3c-7.3-0.2-12.3,3.4-13.9,10.5
		c-1,4.4-0.8,8.7,0.6,13c1.1,3.5,3.5,6,6.9,7.3c7,2.7,16.9,1.2,19.4-9.4c0.2-0.7,0.1-1.6,0.6-2.2c0-0.6,0-1.1,0-1.7
		c-0.2-1.1-0.2-2.2,0-3.4C395.6,263,395.6,262.7,395.6,262.3z M386.9,270.5c-1.3,3.7-4.9,5.2-8.3,3.4c-1.6-0.8-2.3-2.3-2.7-3.9
		c-0.5-1.7-0.6-3.4-0.6-5.4c0-1.8,0.2-3.9,1.4-5.8c1.9-3.2,6.5-3.6,8.9-0.9c1.2,1.3,1.8,2.8,2,4.5
		C387.9,265.1,387.8,267.9,386.9,270.5z"/>
	<path fill="#1A1A1A" d="M107.2,301.6c-0.9-3.2-3.3-4.8-6.6-4.7c-3.2,0.1-5.2,1.9-6,5.2c-0.3,1.3-0.3,2.6-0.2,3.9
		c0.4,3.7,2.1,5.4,5.8,6c0.2,0,0.3,0.1,0.3,0.2c0.1,0,0.2,0,0.2,0c0.1-0.4,0.5-0.2,0.7-0.2c2.8-0.2,4.6-1.6,5.5-4.2
		C107.8,305.8,107.8,303.7,107.2,301.6z M103.5,307.1c-0.5,1.1-1.2,1.9-2.5,1.8c-1.3,0-2.1-0.6-2.5-2c-0.4-1.4-0.5-2.9-0.2-4.4
		c0.3-1.5,1.3-2.3,2.6-2.3c1.3-0.1,2.2,0.7,2.7,2.1c0.3,0.7,0.2,1.4,0.3,2.1C103.8,305.3,103.9,306.3,103.5,307.1z"/>
	<path fill="#1A1A1A" d="M215.6,302.3c-0.6-3.2-2.8-5.1-5.9-5.4c-3.3-0.2-5.8,1.3-6.7,4.2c-0.6,1.9-0.6,3.8-0.2,5.8
		c0.6,3,2.4,4.6,5.3,5.1c0.2,0,0.5-0.1,0.6,0.3c0.2,0,0.3,0,0.5,0c0.1-0.4,0.5-0.2,0.7-0.2c2.6-0.2,4.5-1.5,5.4-4.1
		C215.9,306.1,215.9,304.2,215.6,302.3z M211.3,307.7c-0.6,0.9-1.4,1.3-2.4,1.2c-1.1-0.1-1.8-0.7-2.2-1.7c-0.5-1.5-0.6-3.1-0.2-4.7
		c0.4-1.5,1.3-2.2,2.7-2.2c1.3,0,2.2,0.8,2.7,2.2c0.2,0.7,0.2,1.4,0.2,2.1C212,305.6,211.9,306.7,211.3,307.7z"/>
	<path fill="#1A1A1A" d="M241.6,276.6c0-2.5-0.1-5-0.3-7.4c-0.3-3.2-0.9-6.2-4.6-7.4c4.3-2.8,5.4-4.3,5.7-8.6
		c0.4-6.4-2.5-11.3-9.9-11.9c-5.9-0.5-11.8-0.2-17.7-0.2c-2.4,0-4.1,1.8-4.1,4.2c0,11.5,0,23,0,34.4c0,0.8,0.3,0.9,1,0.9
		c2,0,4.1-0.1,6.1,0c0.9,0,1.1-0.2,1.1-1.1c-0.1-4.4,0-8.9,0-13.3c0-0.5-0.2-1,0.7-1c2.9,0.1,5.8,0,8.8,0c2.9,0.1,3.9,1,4.5,3.8
		c0.5,2,0.4,4.1,0.4,6.2c0,1.6,0.1,3.1,0.6,4.6c0.1,0.4,0.2,0.8,0.8,0.8c2.7,0,5.5,0,8.4,0C241.8,279.3,241.6,278,241.6,276.6z
		 M229.3,258.2c-3.3,0.2-6.6,0-10,0.1c-0.6,0-0.6-0.3-0.6-0.7c0-3,0-5.9,0-8.9c0-0.6,0.2-0.8,0.8-0.8c1.7,0,3.4,0,5,0c0,0,0,0,0,0
		c1.4,0,2.9,0,4.3,0c3.4,0.1,5.2,1.8,5.3,5C234.3,256.2,232.7,258,229.3,258.2z"/>
	<path fill="#1A1A1A" d="M301.1,262.5c-0.3-3.1-1.2-5.9-3.1-8.4c-2.9-4-6.9-5.4-11.7-4.4c-2.5,0.5-4.3,2-6,4.2c0-0.7,0-1,0-1.4
		c0-2.3,0-4.6,0-7c0-3-1.5-4.5-4.5-4.5c-0.8,0-1.5,0.1-2.3,0c-0.9-0.1-1.1,0.2-1.1,1.1c0,8,0,15.9,0,23.9c0,1.5,0,3,0.2,4.5
		c0.5,3.9,2.2,6.9,5.9,8.7c3.6,1.7,7.3,2.4,11.3,1.9c5.2-0.7,8.7-3.4,10.3-8.4C301.3,269.3,301.5,265.9,301.1,262.5z M293.3,266.7
		c-0.1,1.6-0.4,3.2-1.2,4.6c-1.2,2.2-3.1,3.2-5.6,3.2c-2.5-0.1-4.2-1.3-5.2-3.5c-0.8-1.8-1-3.7-0.9-5.8c-0.1-1.8,0.2-3.6,1-5.4
		c1-2,2.5-3.2,4.8-3.4c2.5-0.2,4.4,0.6,5.7,2.7C293.3,261.4,293.5,264,293.3,266.7z"/>
	<path fill="#1A1A1A" d="M151.7,267.4c3,0,6,0,9,0c3,0,5.9,0,8.9,0c0.9,0,1.1-0.3,1.1-1.2c0-2-0.1-3.9-0.5-5.8
		c-1-4.8-3.4-8.5-8.2-10.2c-2.2-0.8-4.6-1-7-0.8c-5.9,0.4-10.1,3.8-11.7,9.4c-1.1,4-1.1,8.1-0.1,12.2c1.2,4.9,4.1,8.3,9.1,9.7
		c2.1,0.6,4.3,0.6,6.5,0.4c5.1-0.5,9.6-4,11.1-8.9c0.2-0.8,0.1-1-0.7-1c-1.6,0.1-3.2,0-4.8,0c-1.2,0-2.2,0.4-3,1.5
		c-0.3,0.5-0.7,0.8-1.3,1.1c-4.5,2.3-9.1-0.3-9.4-5.4C150.7,267.4,151,267.3,151.7,267.4z M150.8,261.3c0.3-3.2,2.6-5.3,6-5.3
		c3.3,0,5.3,2.1,5.6,5.4c0,0.6-0.2,0.7-0.7,0.7c-1.7,0-3.4,0-5,0s-3.4,0-5,0C150.8,262.2,150.7,261.9,150.8,261.3z"/>
	<path fill="#1A1A1A" d="M338,264.1c0-2.2,0-4,0-5.7c0-4.1-1.8-6.7-5.7-8c-3.8-1.3-7.6-1.4-11.5-0.6c-3.9,0.8-6.6,3.1-7.7,7.2
		c-0.2,0.7-0.1,0.9,0.7,0.9c1.8,0,3.5,0,5.3,0c0.9,0,1.8,0,2.3-1c0.2-0.4,0.8-0.6,1.3-0.8c2.1-0.7,4.2-0.5,6.2,0.2
		c0.8,0.3,1.3,0.8,1.4,1.7c0.1,0.9-0.3,1.6-1,2.1c-0.9,0.5-1.8,0.8-2.8,1c-2,0.3-4,0.6-5.9,1c-5.8,1.3-8.2,3.8-8.4,9
		c-0.3,5.2,2.3,8.6,7.4,9.8c2.8,0.6,5.6,0.3,8.5-0.1c5.3-0.7,8.9-4.3,9.7-9.5C338.2,268.7,337.9,266.2,338,264.1z M330.4,269.8
		c-0.7,3.9-5.1,6.3-8.7,4.8c-1.2-0.5-1.8-1.5-1.9-2.7c-0.1-1.4,0.1-2.7,1.4-3.6c0.8-0.6,1.8-0.9,2.8-1.1c1.1-0.3,2.3-0.5,3.4-0.8
		c1.1-0.3,2.1-0.7,3.3-1.1C330.5,266.8,330.6,268.3,330.4,269.8z"/>
	<path fill="#1A1A1A" d="M69.3,264.2c0-2.3,0-4.1,0-6c0-4-1.8-6.6-5.7-7.9c-3.8-1.3-7.6-1.4-11.5-0.6c-3.9,0.8-6.6,3.1-7.6,7.1
		c-0.2,0.8-0.1,1,0.8,1c1.8-0.1,3.6,0,5.4,0c0.8,0,1.5-0.1,2-0.9c0.5-0.7,1.4-0.9,2.2-1.1c1.7-0.4,3.4-0.1,5.1,0.3
		c1,0.3,1.7,0.9,1.8,2c0.1,1.1-0.5,1.7-1.4,2.2c-1.2,0.6-2.6,0.8-3.9,1.1c-2.5,0.4-5.1,0.6-7.4,1.7c-1.7,0.8-3.3,1.6-4.3,3.3
		c-3.4,5.7-0.4,13,6.1,14.5c2.9,0.7,5.8,0.3,8.7-0.1c4.8-0.7,8.5-3.9,9.5-8.3C69.5,269.6,69.2,266.6,69.3,264.2z M61.5,270.3
		c-0.9,3.6-5.3,5.8-8.7,4.3c-1.3-0.6-1.8-1.7-1.9-3c-0.1-1.3,0.2-2.6,1.4-3.3c0.6-0.4,1.3-0.7,2-0.9c2.5-0.6,5-1.1,7.4-2.1
		C61.7,267,61.9,268.6,61.5,270.3z"/>
	<path fill="#1A1A1A" d="M292.4,310.9c-1.8-5.1-3.7-10.2-5.5-15.3c-0.9-2.6-0.9-2.6-3.7-2.6c-1.2,0-1.8,0.5-2.2,1.6
		c-0.5,1.6-1.1,3.2-1.7,4.7c-1.3,3.8-2.7,7.6-4,11.5c-0.1,0.3-0.6,0.8,0.1,0.9c1.1,0.1,2.2,0,3.4,0c0.4,0,0.4-0.3,0.5-0.6
		c0.4-1.1,0.3-2.6,1.2-3.1c0.9-0.5,2.3-0.2,3.5-0.1c1.2,0,2.5-0.5,3.4,0.2c0.7,0.5,0.8,1.9,1.1,2.9c0,0.1,0.1,0.1,0.1,0.2
		c0,0.4,0.3,0.5,0.6,0.5c1.1,0,2.3,0,3.4,0C292.7,311.4,292.5,311.1,292.4,310.9z M282,304.7c-0.3,0-0.8,0.1-0.6-0.5
		c0.8-2.4,1.6-4.7,2.4-7.3c0.9,2.7,1.7,5.2,2.5,7.8C284.8,304.7,283.4,304.7,282,304.7z"/>
	<path fill="#1A1A1A" d="M241.7,301.2c0-1.9-0.9-3.2-2.7-3.8c-1.9-0.6-3.8-0.7-5.7-0.2c-1.5,0.4-2.7,1.3-3.3,2.9
		c-0.1,0.3-0.3,0.6,0,0.8c0.2,0.2,3.3,0,3.5-0.2c0.9-1,2.1-0.9,3.2-0.6c0.6,0.1,1.2,0.3,1.2,1.1c0,0.7-0.6,1-1.2,1.2
		c-0.9,0.2-1.9,0.3-2.8,0.5c-1.9,0.4-3.7,0.8-4.4,3c-1,3.3,0.6,5.7,4.1,6.1c0.5,0,1,0,1.5,0c0.3,0,0.6,0,1-0.1
		c3.4-0.2,5.4-2.3,5.5-5.7C241.8,304.6,241.8,302.9,241.7,301.2z M238.2,306.1c-0.1,1.8-1.4,3-3.2,3c-0.9,0-1.7-0.3-1.8-1.4
		c-0.1-1,0.2-1.7,1.2-2.1c0.6-0.2,1.3-0.3,2-0.5c0.6-0.2,1.2-0.4,1.9-0.6C238.2,305.1,238.2,305.6,238.2,306.1z"/>
</g>
</svg>
