<?xml version="1.0" encoding="utf-8"?>
<!-- Generator: Adobe Illustrator 25.4.1, SVG Export Plug-In . SVG Version: 6.00 Build 0)  -->
<svg version="1.1" id="Capa_1" xmlns="http://www.w3.org/2000/svg" xmlns:xlink="http://www.w3.org/1999/xlink" x="0px" y="0px"
	 viewBox="0 0 162.3 141.4" style="enable-background:new 0 0 162.3 141.4;" xml:space="preserve">
<style type="text/css">
	.st0{fill:#FFFFFF;}
</style>
<g>
	<path class="st0" d="M14.3,137.9c0.5-1.7,0.9-3.4,1.4-5.1c2.6-9.6,5.3-19.3,7.9-28.9c0.1-0.3,0.1-0.6-0.1-0.9
		c-4-7-6.6-14.4-7.8-22.3c-0.9-5.6-1.1-11.2-0.5-16.8c1.7-16.8,8.7-30.9,21-42.4c9.1-8.5,19.8-14,32-16.5c5.8-1.2,11.6-1.6,17.4-1.2
		c27.6,1.7,51.4,20.4,59.6,46.9c2.3,7.6,3.2,15.3,2.8,23.3c-1.5,26.8-19.1,50.3-44.5,59.2c-5.6,1.9-11.3,3.1-17.1,3.5
		c-12.8,0.9-24.9-1.7-36.2-7.7c-0.3-0.2-0.6-0.2-1-0.1c-11.4,3-22.9,6-34.3,9C14.6,137.8,14.5,137.8,14.3,137.9z M30.3,122.1
		c0.2,0,0.2-0.1,0.3-0.1c6.6-1.7,13.2-3.5,19.9-5.2c0.5-0.1,1-0.1,1.4,0.2c0.4,0.3,0.8,0.5,1.2,0.7c11.8,6.9,24.4,9.3,37.9,7
		c10.1-1.7,19-5.9,26.7-12.7c13.8-12.2,20.1-27.7,19-46.1c-0.3-5.5-1.6-10.8-3.6-15.9c-7.4-18.9-25.5-33.6-47.8-35.1
		c-5.9-0.4-11.8,0.1-17.5,1.6c-23.2,6.1-39.8,26.1-41.4,50c-0.5,7.1,0.4,14.1,2.6,20.9c1.6,4.9,3.9,9.4,6.7,13.7
		c0.2,0.4,0.3,0.7,0.2,1.1c-1.7,6.1-3.3,12.1-5,18.2C30.6,120.9,30.5,121.5,30.3,122.1z"/>
	<path class="st0" d="M59.7,39.4c0.7,0,1.4,0,2.1,0c0.8,0,1.5,0.3,1.9,1c0.5,0.7,0.9,1.4,1.2,2.1c1.6,3.8,3.1,7.7,4.8,11.4
		c0.8,1.7,0.9,3.3-0.2,4.8c-1.1,1.5-2.2,3-3.5,4.4c-1.5,1.6-1.6,2.2-0.4,4.1C69.7,74,75,79.7,82,83.6c2,1.1,4.2,2.1,6.3,3
		c1.3,0.6,2.2,0.3,3.1-0.8c1.8-2.2,3.6-4.4,5.3-6.6c0.8-1,1.5-1.3,2.7-0.9c1.2,0.4,2.5,0.9,3.6,1.5c3.4,1.6,6.8,3.3,10.2,4.9
		c1.4,0.7,2,1.6,1.9,3.2c-0.2,2.1-0.6,4.2-1.3,6.2c-0.4,1.1-1.1,1.9-2,2.7c-2.5,2.4-5.4,4.1-8.8,4.8c-3.5,0.7-7,0.6-10.4-0.4
		c-4.6-1.4-9.1-3-13.3-5.3c-5.5-2.9-10.4-6.8-14.8-11.2c-3.7-3.7-7.1-7.8-10.1-12.1c-2.2-3-4.1-6.2-5.4-9.7
		c-1.7-4.4-2.1-8.9-0.7-13.5c1-3.5,3-6.3,5.6-8.7c1.1-1,2.5-1.5,4.1-1.5C58.6,39.4,59.2,39.4,59.7,39.4
		C59.7,39.4,59.7,39.4,59.7,39.4z"/>
</g>
</svg>
